<?xml version="1.0" encoding="UTF-8" standalone="no"?>
<!DOCTYPE svg PUBLIC "-//W3C//DTD SVG 1.1//EN"
 "http://www.w3.org/Graphics/SVG/1.1/DTD/svg11.dtd">
<!-- Generated by graphviz version 2.38.0 (20140413.2041)
 -->
<!-- Title: %3 Pages: 1 -->
<svg width="1390pt" height="260pt"
 viewBox="0.00 0.00 1390.01 260.00" xmlns="http://www.w3.org/2000/svg" xmlns:xlink="http://www.w3.org/1999/xlink">
<g id="graph0" class="graph" transform="scale(1 1) rotate(0) translate(4 256)">
<title>%3</title>
<polygon fill="white" stroke="none" points="-4,4 -4,-256 1386.01,-256 1386.01,4 -4,4"/>
<!-- [root] aws_instance.web (expand) -->
<g id="node1" class="node"><title>[root] aws_instance.web (expand)</title>
<polygon fill="none" stroke="black" points="436.301,-108 290.301,-108 290.301,-72 436.301,-72 436.301,-108"/>
<text text-anchor="middle" x="363.301" y="-86.3" font-family="Times,serif" font-size="14.00">aws_instance.web</text>
</g>
<!-- [root] provider[&quot;registry.terraform.io/hashicorp/aws&quot;] -->
<g id="node3" class="node"><title>[root] provider[&quot;registry.terraform.io/hashicorp/aws&quot;]</title>
<polygon fill="none" stroke="black" points="326.301,-36 0.199052,-18 326.301,-3.55271e-15 652.403,-18 326.301,-36"/>
<text text-anchor="middle" x="326.301" y="-14.3" font-family="Times,serif" font-size="14.00">provider[&quot;registry.terraform.io/hashicorp/aws&quot;]</text>
</g>
<!-- [root] aws_instance.web (expand)&#45;&gt;[root] provider[&quot;registry.terraform.io/hashicorp/aws&quot;] -->
<g id="edge1" class="edge"><title>[root] aws_instance.web (expand)&#45;&gt;[root] provider[&quot;registry.terraform.io/hashicorp/aws&quot;]</title>
<path fill="none" stroke="black" d="M354.155,-71.6966C349.835,-63.5234 344.591,-53.6031 339.824,-44.5839"/>
<polygon fill="black" stroke="black" points="342.854,-42.8277 335.087,-35.6223 336.666,-46.0989 342.854,-42.8277"/>
</g>
<!-- [root] azurerm_resource_group.blue (expand) -->
<g id="node2" class="node"><title>[root] azurerm_resource_group.blue (expand)</title>
<polygon fill="none" stroke="black" points="1137.3,-108 905.301,-108 905.301,-72 1137.3,-72 1137.3,-108"/>
<text text-anchor="middle" x="1021.3" y="-86.3" font-family="Times,serif" font-size="14.00">azurerm_resource_group.blue</text>
</g>
<!-- [root] provider[&quot;registry.terraform.io/hashicorp/azurerm&quot;] -->
<g id="node4" class="node"><title>[root] provider[&quot;registry.terraform.io/hashicorp/azurerm&quot;]</title>
<polygon fill="none" stroke="black" points="1026.3,-36 670.373,-18 1026.3,-3.55271e-15 1382.23,-18 1026.3,-36"/>
<text text-anchor="middle" x="1026.3" y="-14.3" font-family="Times,serif" font-size="14.00">provider[&quot;registry.terraform.io/hashicorp/azurerm&quot;]</text>
</g>
<!-- [root] azurerm_resource_group.blue (expand)&#45;&gt;[root] provider[&quot;registry.terraform.io/hashicorp/azurerm&quot;] -->
<g id="edge2" class="edge"><title>[root] azurerm_resource_group.blue (expand)&#45;&gt;[root] provider[&quot;registry.terraform.io/hashicorp/azurerm&quot;]</title>
<path fill="none" stroke="black" d="M1022.54,-71.6966C1023.09,-63.9827 1023.75,-54.7125 1024.36,-46.1124"/>
<polygon fill="black" stroke="black" points="1027.86,-46.3283 1025.08,-36.1043 1020.88,-45.8295 1027.86,-46.3283"/>
</g>
<!-- [root] provider[&quot;registry.terraform.io/hashicorp/aws&quot;] (close) -->
<g id="node5" class="node"><title>[root] provider[&quot;registry.terraform.io/hashicorp/aws&quot;] (close)</title>
<ellipse fill="none" stroke="black" cx="382.301" cy="-162" rx="293.248" ry="18"/>
<text text-anchor="middle" x="382.301" y="-158.3" font-family="Times,serif" font-size="14.00">[root] provider[&quot;registry.terraform.io/hashicorp/aws&quot;] (close)</text>
</g>
<!-- [root] provider[&quot;registry.terraform.io/hashicorp/aws&quot;] (close)&#45;&gt;[root] aws_instance.web (expand) -->
<g id="edge3" class="edge"><title>[root] provider[&quot;registry.terraform.io/hashicorp/aws&quot;] (close)&#45;&gt;[root] aws_instance.web (expand)</title>
<path fill="none" stroke="black" d="M377.604,-143.697C375.487,-135.898 372.939,-126.509 370.583,-117.829"/>
<polygon fill="black" stroke="black" points="373.941,-116.838 367.943,-108.104 367.185,-118.672 373.941,-116.838"/>
</g>
<!-- [root] provider[&quot;registry.terraform.io/hashicorp/azurerm&quot;] (close) -->
<g id="node6" class="node"><title>[root] provider[&quot;registry.terraform.io/hashicorp/azurerm&quot;] (close)</title>
<ellipse fill="none" stroke="black" cx="1016.3" cy="-162" rx="313.844" ry="18"/>
<text text-anchor="middle" x="1016.3" y="-158.3" font-family="Times,serif" font-size="14.00">[root] provider[&quot;registry.terraform.io/hashicorp/azurerm&quot;] (close)</text>
</g>
<!-- [root] provider[&quot;registry.terraform.io/hashicorp/azurerm&quot;] (close)&#45;&gt;[root] azurerm_resource_group.blue (expand) -->
<g id="edge4" class="edge"><title>[root] provider[&quot;registry.terraform.io/hashicorp/azurerm&quot;] (close)&#45;&gt;[root] azurerm_resource_group.blue (expand)</title>
<path fill="none" stroke="black" d="M1017.54,-143.697C1018.09,-135.983 1018.75,-126.712 1019.36,-118.112"/>
<polygon fill="black" stroke="black" points="1022.86,-118.328 1020.08,-108.104 1015.88,-117.83 1022.86,-118.328"/>
</g>
<!-- [root] root -->
<g id="node7" class="node"><title>[root] root</title>
<ellipse fill="none" stroke="black" cx="699.301" cy="-234" rx="58.4896" ry="18"/>
<text text-anchor="middle" x="699.301" y="-230.3" font-family="Times,serif" font-size="14.00">[root] root</text>
</g>
<!-- [root] root&#45;&gt;[root] provider[&quot;registry.terraform.io/hashicorp/aws&quot;] (close) -->
<g id="edge5" class="edge"><title>[root] root&#45;&gt;[root] provider[&quot;registry.terraform.io/hashicorp/aws&quot;] (close)</title>
<path fill="none" stroke="black" d="M653.206,-222.821C604.408,-212.046 526.322,-194.803 466.494,-181.591"/>
<polygon fill="black" stroke="black" points="467.199,-178.163 456.68,-179.424 465.69,-184.998 467.199,-178.163"/>
</g>
<!-- [root] root&#45;&gt;[root] provider[&quot;registry.terraform.io/hashicorp/azurerm&quot;] (close) -->
<g id="edge6" class="edge"><title>[root] root&#45;&gt;[root] provider[&quot;registry.terraform.io/hashicorp/azurerm&quot;] (close)</title>
<path fill="none" stroke="black" d="M745.395,-222.821C794.113,-212.064 872.019,-194.86 931.809,-181.658"/>
<polygon fill="black" stroke="black" points="932.608,-185.066 941.618,-179.492 931.098,-178.23 932.608,-185.066"/>
</g>
</g>
</svg>
