<?xml version="1.0" encoding="UTF-8" standalone="no"?>
<!DOCTYPE svg PUBLIC "-//W3C//DTD SVG 1.1//EN"
 "http://www.w3.org/Graphics/SVG/1.1/DTD/svg11.dtd">
<!-- Generated by graphviz version 2.38.0 (20140413.2041)
 -->
<!-- Title: %3 Pages: 1 -->
<svg width="898pt" height="548pt"
 viewBox="0.00 0.00 898.00 548.00" xmlns="http://www.w3.org/2000/svg" xmlns:xlink="http://www.w3.org/1999/xlink">
<g id="graph0" class="graph" transform="scale(1 1) rotate(0) translate(4 544)">
<title>%3</title>
<polygon fill="white" stroke="none" points="-4,4 -4,-544 894,-544 894,4 -4,4"/>
<!-- [root] azurerm_network_interface.example_rg (expand) -->
<g id="node1" class="node"><title>[root] azurerm_network_interface.example_rg (expand)</title>
<polygon fill="none" stroke="black" points="426,-324 123,-324 123,-288 426,-288 426,-324"/>
<text text-anchor="middle" x="274.5" y="-302.3" font-family="Times,serif" font-size="14.00">azurerm_network_interface.example_rg</text>
</g>
<!-- [root] azurerm_public_ip.examplepublicip (expand) -->
<g id="node3" class="node"><title>[root] azurerm_public_ip.examplepublicip (expand)</title>
<polygon fill="none" stroke="black" points="831.5,-252 559.5,-252 559.5,-216 831.5,-216 831.5,-252"/>
<text text-anchor="middle" x="695.5" y="-230.3" font-family="Times,serif" font-size="14.00">azurerm_public_ip.examplepublicip</text>
</g>
<!-- [root] azurerm_network_interface.example_rg (expand)&#45;&gt;[root] azurerm_public_ip.examplepublicip (expand) -->
<g id="edge1" class="edge"><title>[root] azurerm_network_interface.example_rg (expand)&#45;&gt;[root] azurerm_public_ip.examplepublicip (expand)</title>
<path fill="none" stroke="black" d="M376.95,-287.966C439.213,-277.613 518.781,-264.383 582.817,-253.736"/>
<polygon fill="black" stroke="black" points="583.666,-257.143 592.956,-252.05 582.517,-250.238 583.666,-257.143"/>
</g>
<!-- [root] azurerm_subnet.internal (expand) -->
<g id="node6" class="node"><title>[root] azurerm_subnet.internal (expand)</title>
<polygon fill="none" stroke="black" points="371.5,-252 177.5,-252 177.5,-216 371.5,-216 371.5,-252"/>
<text text-anchor="middle" x="274.5" y="-230.3" font-family="Times,serif" font-size="14.00">azurerm_subnet.internal</text>
</g>
<!-- [root] azurerm_network_interface.example_rg (expand)&#45;&gt;[root] azurerm_subnet.internal (expand) -->
<g id="edge2" class="edge"><title>[root] azurerm_network_interface.example_rg (expand)&#45;&gt;[root] azurerm_subnet.internal (expand)</title>
<path fill="none" stroke="black" d="M274.5,-287.697C274.5,-279.983 274.5,-270.712 274.5,-262.112"/>
<polygon fill="black" stroke="black" points="278,-262.104 274.5,-252.104 271,-262.104 278,-262.104"/>
</g>
<!-- [root] azurerm_network_security_group.examplensg (expand) -->
<g id="node2" class="node"><title>[root] azurerm_network_security_group.examplensg (expand)</title>
<polygon fill="none" stroke="black" points="793,-324 444,-324 444,-288 793,-288 793,-324"/>
<text text-anchor="middle" x="618.5" y="-302.3" font-family="Times,serif" font-size="14.00">azurerm_network_security_group.examplensg</text>
</g>
<!-- [root] azurerm_resource_group.example_rg (expand) -->
<g id="node4" class="node"><title>[root] azurerm_resource_group.example_rg (expand)</title>
<polygon fill="none" stroke="black" points="673.5,-108 389.5,-108 389.5,-72 673.5,-72 673.5,-108"/>
<text text-anchor="middle" x="531.5" y="-86.3" font-family="Times,serif" font-size="14.00">azurerm_resource_group.example_rg</text>
</g>
<!-- [root] azurerm_network_security_group.examplensg (expand)&#45;&gt;[root] azurerm_resource_group.example_rg (expand) -->
<g id="edge3" class="edge"><title>[root] azurerm_network_security_group.examplensg (expand)&#45;&gt;[root] azurerm_resource_group.example_rg (expand)</title>
<path fill="none" stroke="black" d="M586.676,-287.892C573.277,-279.002 558.876,-266.866 550.5,-252 526.813,-209.96 526.331,-152.019 528.597,-118.331"/>
<polygon fill="black" stroke="black" points="532.091,-118.544 529.403,-108.296 525.113,-117.983 532.091,-118.544"/>
</g>
<!-- [root] azurerm_public_ip.examplepublicip (expand)&#45;&gt;[root] azurerm_resource_group.example_rg (expand) -->
<g id="edge4" class="edge"><title>[root] azurerm_public_ip.examplepublicip (expand)&#45;&gt;[root] azurerm_resource_group.example_rg (expand)</title>
<path fill="none" stroke="black" d="M675.718,-215.871C646.659,-190.711 592.311,-143.654 559.266,-115.042"/>
<polygon fill="black" stroke="black" points="561.203,-112.089 551.352,-108.189 556.621,-117.381 561.203,-112.089"/>
</g>
<!-- [root] provider[&quot;registry.terraform.io/hashicorp/azurerm&quot;] -->
<g id="node10" class="node"><title>[root] provider[&quot;registry.terraform.io/hashicorp/azurerm&quot;]</title>
<polygon fill="none" stroke="black" points="531.5,-36 175.572,-18 531.5,-3.55271e-15 887.428,-18 531.5,-36"/>
<text text-anchor="middle" x="531.5" y="-14.3" font-family="Times,serif" font-size="14.00">provider[&quot;registry.terraform.io/hashicorp/azurerm&quot;]</text>
</g>
<!-- [root] azurerm_resource_group.example_rg (expand)&#45;&gt;[root] provider[&quot;registry.terraform.io/hashicorp/azurerm&quot;] -->
<g id="edge5" class="edge"><title>[root] azurerm_resource_group.example_rg (expand)&#45;&gt;[root] provider[&quot;registry.terraform.io/hashicorp/azurerm&quot;]</title>
<path fill="none" stroke="black" d="M531.5,-71.6966C531.5,-63.9827 531.5,-54.7125 531.5,-46.1124"/>
<polygon fill="black" stroke="black" points="535,-46.1043 531.5,-36.1043 528,-46.1044 535,-46.1043"/>
</g>
<!-- [root] azurerm_subnet.external (expand) -->
<g id="node5" class="node"><title>[root] azurerm_subnet.external (expand)</title>
<polygon fill="none" stroke="black" points="197,-396 0,-396 0,-360 197,-360 197,-396"/>
<text text-anchor="middle" x="98.5" y="-374.3" font-family="Times,serif" font-size="14.00">azurerm_subnet.external</text>
</g>
<!-- [root] azurerm_virtual_network.example_rg (expand) -->
<g id="node8" class="node"><title>[root] azurerm_virtual_network.example_rg (expand)</title>
<polygon fill="none" stroke="black" points="417.5,-180 131.5,-180 131.5,-144 417.5,-144 417.5,-180"/>
<text text-anchor="middle" x="274.5" y="-158.3" font-family="Times,serif" font-size="14.00">azurerm_virtual_network.example_rg</text>
</g>
<!-- [root] azurerm_subnet.external (expand)&#45;&gt;[root] azurerm_virtual_network.example_rg (expand) -->
<g id="edge6" class="edge"><title>[root] azurerm_subnet.external (expand)&#45;&gt;[root] azurerm_virtual_network.example_rg (expand)</title>
<path fill="none" stroke="black" d="M98.9538,-359.911C99.9875,-341.468 103.265,-311.571 113.5,-288 129.538,-251.064 137.47,-241.665 168.5,-216 183.75,-203.386 202.505,-192.769 219.978,-184.429"/>
<polygon fill="black" stroke="black" points="221.905,-187.395 229.522,-180.032 218.975,-181.037 221.905,-187.395"/>
</g>
<!-- [root] azurerm_subnet.internal (expand)&#45;&gt;[root] azurerm_virtual_network.example_rg (expand) -->
<g id="edge7" class="edge"><title>[root] azurerm_subnet.internal (expand)&#45;&gt;[root] azurerm_virtual_network.example_rg (expand)</title>
<path fill="none" stroke="black" d="M274.5,-215.697C274.5,-207.983 274.5,-198.712 274.5,-190.112"/>
<polygon fill="black" stroke="black" points="278,-190.104 274.5,-180.104 271,-190.104 278,-190.104"/>
</g>
<!-- [root] azurerm_virtual_machine.example_rg (expand) -->
<g id="node7" class="node"><title>[root] azurerm_virtual_machine.example_rg (expand)</title>
<polygon fill="none" stroke="black" points="529,-396 242,-396 242,-360 529,-360 529,-396"/>
<text text-anchor="middle" x="385.5" y="-374.3" font-family="Times,serif" font-size="14.00">azurerm_virtual_machine.example_rg</text>
</g>
<!-- [root] azurerm_virtual_machine.example_rg (expand)&#45;&gt;[root] azurerm_network_interface.example_rg (expand) -->
<g id="edge8" class="edge"><title>[root] azurerm_virtual_machine.example_rg (expand)&#45;&gt;[root] azurerm_network_interface.example_rg (expand)</title>
<path fill="none" stroke="black" d="M358.346,-359.876C343.967,-350.808 326.119,-339.552 310.59,-329.759"/>
<polygon fill="black" stroke="black" points="312.084,-326.564 301.758,-324.19 308.35,-332.484 312.084,-326.564"/>
</g>
<!-- [root] azurerm_virtual_network.example_rg (expand)&#45;&gt;[root] azurerm_resource_group.example_rg (expand) -->
<g id="edge9" class="edge"><title>[root] azurerm_virtual_network.example_rg (expand)&#45;&gt;[root] azurerm_resource_group.example_rg (expand)</title>
<path fill="none" stroke="black" d="M337.041,-143.966C373.73,-133.972 420.262,-121.298 458.608,-110.854"/>
<polygon fill="black" stroke="black" points="459.95,-114.116 468.679,-108.111 458.111,-107.362 459.95,-114.116"/>
</g>
<!-- [root] output.my_public_ip -->
<g id="node9" class="node"><title>[root] output.my_public_ip</title>
<polygon fill="none" stroke="black" points="884,-468 727,-468 727,-432 890,-432 890,-462 884,-468"/>
<polyline fill="none" stroke="black" points="884,-468 884,-462 "/>
<polyline fill="none" stroke="black" points="890,-462 884,-462 "/>
<text text-anchor="middle" x="808.5" y="-446.3" font-family="Times,serif" font-size="14.00">output.my_public_ip</text>
</g>
<!-- [root] output.my_public_ip&#45;&gt;[root] azurerm_public_ip.examplepublicip (expand) -->
<g id="edge10" class="edge"><title>[root] output.my_public_ip&#45;&gt;[root] azurerm_public_ip.examplepublicip (expand)</title>
<path fill="none" stroke="black" d="M813.147,-431.809C820.573,-400.402 831.512,-332.86 802.5,-288 793.69,-274.377 780.267,-264.131 765.875,-256.469"/>
<polygon fill="black" stroke="black" points="767.341,-253.29 756.821,-252.026 764.256,-259.573 767.341,-253.29"/>
</g>
<!-- [root] provider[&quot;registry.terraform.io/hashicorp/azurerm&quot;] (close) -->
<g id="node11" class="node"><title>[root] provider[&quot;registry.terraform.io/hashicorp/azurerm&quot;] (close)</title>
<ellipse fill="none" stroke="black" cx="388.5" cy="-450" rx="313.844" ry="18"/>
<text text-anchor="middle" x="388.5" y="-446.3" font-family="Times,serif" font-size="14.00">[root] provider[&quot;registry.terraform.io/hashicorp/azurerm&quot;] (close)</text>
</g>
<!-- [root] provider[&quot;registry.terraform.io/hashicorp/azurerm&quot;] (close)&#45;&gt;[root] azurerm_network_security_group.examplensg (expand) -->
<g id="edge11" class="edge"><title>[root] provider[&quot;registry.terraform.io/hashicorp/azurerm&quot;] (close)&#45;&gt;[root] azurerm_network_security_group.examplensg (expand)</title>
<path fill="none" stroke="black" d="M457.062,-432.34C483.56,-423.979 513.27,-412.121 537.5,-396 563.107,-378.963 586.049,-352.089 600.923,-332.325"/>
<polygon fill="black" stroke="black" points="603.884,-334.206 606.979,-324.074 598.241,-330.065 603.884,-334.206"/>
</g>
<!-- [root] provider[&quot;registry.terraform.io/hashicorp/azurerm&quot;] (close)&#45;&gt;[root] azurerm_subnet.external (expand) -->
<g id="edge12" class="edge"><title>[root] provider[&quot;registry.terraform.io/hashicorp/azurerm&quot;] (close)&#45;&gt;[root] azurerm_subnet.external (expand)</title>
<path fill="none" stroke="black" d="M319.774,-432.411C277.497,-422.206 223.126,-409.082 178.861,-398.397"/>
<polygon fill="black" stroke="black" points="179.542,-394.961 169,-396.017 177.9,-401.766 179.542,-394.961"/>
</g>
<!-- [root] provider[&quot;registry.terraform.io/hashicorp/azurerm&quot;] (close)&#45;&gt;[root] azurerm_virtual_machine.example_rg (expand) -->
<g id="edge13" class="edge"><title>[root] provider[&quot;registry.terraform.io/hashicorp/azurerm&quot;] (close)&#45;&gt;[root] azurerm_virtual_machine.example_rg (expand)</title>
<path fill="none" stroke="black" d="M387.758,-431.697C387.428,-423.983 387.031,-414.712 386.662,-406.112"/>
<polygon fill="black" stroke="black" points="390.158,-405.945 386.233,-396.104 383.165,-406.245 390.158,-405.945"/>
</g>
<!-- [root] root -->
<g id="node12" class="node"><title>[root] root</title>
<ellipse fill="none" stroke="black" cx="598.5" cy="-522" rx="58.4896" ry="18"/>
<text text-anchor="middle" x="598.5" y="-518.3" font-family="Times,serif" font-size="14.00">[root] root</text>
</g>
<!-- [root] root&#45;&gt;[root] output.my_public_ip -->
<g id="edge14" class="edge"><title>[root] root&#45;&gt;[root] output.my_public_ip</title>
<path fill="none" stroke="black" d="M637.017,-508.161C667.864,-497.879 711.714,-483.262 747.35,-471.383"/>
<polygon fill="black" stroke="black" points="748.786,-474.594 757.166,-468.111 746.572,-467.953 748.786,-474.594"/>
</g>
<!-- [root] root&#45;&gt;[root] provider[&quot;registry.terraform.io/hashicorp/azurerm&quot;] (close) -->
<g id="edge15" class="edge"><title>[root] root&#45;&gt;[root] provider[&quot;registry.terraform.io/hashicorp/azurerm&quot;] (close)</title>
<path fill="none" stroke="black" d="M559.983,-508.161C528.92,-497.807 484.67,-483.057 448.901,-471.134"/>
<polygon fill="black" stroke="black" points="449.649,-467.694 439.055,-467.852 447.435,-474.334 449.649,-467.694"/>
</g>
</g>
</svg>
